<svg xmlns="http://www.w3.org/2000/svg" xmlns:xlink="http://www.w3.org/1999/xlink" viewBox="0 0 239.33 110.33"><defs><style>.cls-1{fill:#1f1d59}.cls-2{fill:none}.cls-3{fill:url(#linear-gradient)}.cls-4{fill:url(#linear-gradient-2)}.cls-5{fill:url(#linear-gradient-3)}.cls-6{fill:url(#linear-gradient-4)}.cls-7{fill:url(#linear-gradient-5)}.cls-8{fill:url(#linear-gradient-6)}.cls-9{fill:url(#linear-gradient-7)}.cls-10{fill:url(#linear-gradient-8)}.cls-11{fill:url(#linear-gradient-9)}.cls-12{fill:url(#linear-gradient-10)}.cls-13{fill:url(#linear-gradient-11)}.cls-14{fill:url(#linear-gradient-12)}.cls-15{fill:url(#linear-gradient-13)}.cls-16{fill:url(#linear-gradient-14)}</style><linearGradient id="linear-gradient" x1="31.5" y1="82.93" x2="49.97" y2="82.93" gradientUnits="userSpaceOnUse"><stop offset="0" stop-color="#1f1d59"/><stop offset="1" stop-color="#0e0f20"/></linearGradient><linearGradient id="linear-gradient-2" x1="34.97" y1="61.14" x2="42.16" y2="61.14" gradientUnits="userSpaceOnUse"><stop offset="0" stop-color="#0e0f20"/><stop offset="1" stop-color="#1f1d59"/></linearGradient><linearGradient id="linear-gradient-3" x1="24.01" y1="60.2" x2="30.59" y2="60.2" gradientUnits="userSpaceOnUse"><stop offset="0" stop-color="#1f1d59"/><stop offset=".48" stop-color="#0e0f20"/><stop offset="1" stop-color="#1f1d59"/></linearGradient><linearGradient id="linear-gradient-4" x1="46.93" y1="56.4" x2="70.36" y2="56.4" gradientUnits="userSpaceOnUse"><stop offset="0" stop-color="#40c7f3"/><stop offset="1" stop-color="#1f1d59"/></linearGradient><linearGradient id="linear-gradient-5" x1="49.68" y1="77.67" x2="49.68" y2="43.62" xlink:href="#linear-gradient-4"/><linearGradient id="linear-gradient-6" x1="29.68" y1="52.32" x2="70.8" y2="52.32" gradientUnits="userSpaceOnUse"><stop offset="0" stop-color="#1f1d59"/><stop offset="1" stop-color="#40c7f3"/></linearGradient><linearGradient id="linear-gradient-7" x1="52.87" y1="46.53" x2="59.37" y2="46.53" gradientUnits="userSpaceOnUse"><stop offset=".11" stop-color="#1f1d59"/><stop offset=".21" stop-color="#17163e"/><stop offset=".32" stop-color="#101128"/><stop offset=".4" stop-color="#0e0f20"/><stop offset=".7" stop-color="#0f0f22"/><stop offset=".81" stop-color="#111129"/><stop offset=".89" stop-color="#141434"/><stop offset=".95" stop-color="#191845"/><stop offset="1" stop-color="#1f1d59"/></linearGradient><linearGradient id="linear-gradient-8" x1="70.91" y1="52.65" x2="74.09" y2="52.65" xlink:href="#linear-gradient-7"/><linearGradient id="linear-gradient-9" x1="48.88" y1="27.38" x2="67.34" y2="27.38" xlink:href="#linear-gradient-3"/><linearGradient id="linear-gradient-10" x1="22.79" y1="54.89" x2="31.19" y2="54.89" xlink:href="#linear-gradient-3"/><linearGradient id="linear-gradient-11" x1="56.12" y1="52.52" x2="56.12" y2="43.22" gradientUnits="userSpaceOnUse"><stop offset="0" stop-color="#0e0f20"/><stop offset=".68" stop-color="#1f1d59"/></linearGradient><linearGradient id="linear-gradient-12" x1="22.25" y1="56.36" x2="31.19" y2="56.36" xlink:href="#linear-gradient"/><linearGradient id="linear-gradient-13" x1="48.81" y1="28.55" x2="69.1" y2="28.55" xlink:href="#linear-gradient-2"/><linearGradient id="linear-gradient-14" x1="70.89" y1="55.84" x2="76.34" y2="55.84" xlink:href="#linear-gradient-2"/></defs><title>Asset 3</title><g id="Layer_2" data-name="Layer 2"><g id="Слой_1" data-name="Слой 1"><path class="cls-1" d="M83.52 64v-3.48H87V64h3.29v-7.44H87v-2.7h3.29V46.7H87v3.46h-3.48V46.7a3.35 3.35 0 0 1 1-2.42 3.3 3.3 0 0 1 2.44-1h3.29a3.31 3.31 0 0 1 2.44 1 3.34 3.34 0 0 1 1 2.42V64a3.48 3.48 0 0 1-3.46 3.46H87A3.49 3.49 0 0 1 83.52 64zm12.95 3.44v-24.2h3.46v10.62h3.27V43.24h3.46v24.2h-3.46V56.56h-3.27v10.88zM109.43 64V46.7a3.35 3.35 0 0 1 1-2.42 3.3 3.3 0 0 1 2.44-1h3.27a3.3 3.3 0 0 1 2.44 1 3.35 3.35 0 0 1 1 2.42v7.48a2.33 2.33 0 0 1-1 1.89 3.86 3.86 0 0 1-2.43.79h-3.27V64h3.27v-3.48h3.46V64a3.49 3.49 0 0 1-3.46 3.46h-3.27a3.49 3.49 0 0 1-3.45-3.46zm3.46-9.8h3.27v-7.5h-3.27zm9.5 13.24v-24.2h6.73a3.49 3.49 0 0 1 3.46 3.46v8.64a2.36 2.36 0 0 1-1 1.91 3.85 3.85 0 0 1-2.44.79h-3.28v9.4zm3.46-12.1h3.28V46.7h-3.28zm9.15 12.1V46.7a3.49 3.49 0 0 1 3.46-3.46h6.73v3.46h-6.73v20.74zM146.91 64V46.7a3.35 3.35 0 0 1 1-2.42 3.31 3.31 0 0 1 2.44-1h3.28a3.3 3.3 0 0 1 2.44 1 3.35 3.35 0 0 1 1 2.42V64a3.49 3.49 0 0 1-3.46 3.46h-3.28a3.49 3.49 0 0 1-3.42-3.46zm3.46 0h3.28V46.7h-3.28zm9.5 3.44v-24.2h5l3.51 15 3.54-15h4.94v24.2h-3.44V50.26l-4.07 17.18h-2l-4-17.13v17.13zM179.6 64V46.7a3.35 3.35 0 0 1 1-2.42 3.3 3.3 0 0 1 2.44-1h3.27a3.31 3.31 0 0 1 2.44 1 3.35 3.35 0 0 1 1 2.42v7.48a2.33 2.33 0 0 1-1 1.89 3.86 3.86 0 0 1-2.43.79h-3.27V64h3.27v-3.48h3.46V64a3.48 3.48 0 0 1-3.46 3.46h-3.27A3.49 3.49 0 0 1 179.6 64zm3.46-9.8h3.27v-7.5h-3.27zm9.5 13.24v-24.2h6.73a3.49 3.49 0 0 1 3.46 3.46v8.64a2.36 2.36 0 0 1-1 1.91 3.86 3.86 0 0 1-2.44.79H196v9.4zm3.44-12.1h3.27V46.7H196zm9.16 8.66v-7.44a2.36 2.36 0 0 1 1-1.91 3.86 3.86 0 0 1 2.44-.79h3.27V46.7h-3.27v3.46h-3.46V46.7a3.35 3.35 0 0 1 1-2.42 3.31 3.31 0 0 1 2.44-1h3.27a3.31 3.31 0 0 1 2.44 1 3.35 3.35 0 0 1 1 2.42v20.74h-6.73a3.48 3.48 0 0 1-3.4-3.44zm3.46 0h3.27v-7.44h-3.27zM84.07 75.5h3.26a2.26 2.26 0 0 0-.66-1.42 2.22 2.22 0 0 0-1.63-.6 2.48 2.48 0 0 0-1.76.67l-.35-.38A2.88 2.88 0 0 1 85 73a2.89 2.89 0 1 1 0 5.77 3 3 0 0 1-2.08-.77l.36-.42a2.43 2.43 0 0 0 1.77.67 2.22 2.22 0 0 0 1.74-.69 2.39 2.39 0 0 0 .57-1.56h-3.29zm11.36-2.44v5.57h-.6v-5h-2.65l-.56 3.93a1.37 1.37 0 0 1-.43.86 1.22 1.22 0 0 1-.85.3 2.23 2.23 0 0 1-.66-.09l.11-.45a1.54 1.54 0 0 0 .37 0 .81.81 0 0 0 .65-.26 1.22 1.22 0 0 0 .26-.65l.58-4.22zm2.77 0h4.22v.52H98.8v1.82h3.2v.51h-3.2v2.21h3.75v.51H98.2zm7.61 0v2.35h1.07a1 1 0 0 0 .54-.12.89.89 0 0 0 .31-.32l.75-1.27a1.37 1.37 0 0 1 .57-.57 1.55 1.55 0 0 1 .67-.13 2.21 2.21 0 0 1 .37 0v.47h-.13a1.18 1.18 0 0 0-.58.1.82.82 0 0 0-.38.43l-.71 1.19a1.66 1.66 0 0 1-.37.42l2.19 3.06h-.71l-1.95-2.78a2.23 2.23 0 0 1-.5.06h-1.13v2.73h-.59v-5.62zm6.35 0h5.22v.51h-2.32v5.06h-.6v-5.05h-2.3zm11.92 3.29a2.14 2.14 0 0 1-1.57.65h-2v1.64h-.6v-5.58h2.63a2.1 2.1 0 0 1 1.53.61 1.89 1.89 0 0 1 .56 1.36 1.92 1.92 0 0 1-.55 1.32zm-.47-.3a1.56 1.56 0 0 0 .38-1 1.41 1.41 0 0 0-.36-1 1.43 1.43 0 0 0-1.15-.47h-2v2.91h2.09a1.32 1.32 0 0 0 1.04-.49zm8.39-2.22a3 3 0 0 1-.06 4.09 3.1 3.1 0 0 1-4.21 0 2.92 2.92 0 0 1 .05-4.14 3.09 3.09 0 0 1 4.21.08zm-3.84 3.71a2.35 2.35 0 0 0 1.69.67 2.31 2.31 0 0 0 1.65-.64 2.49 2.49 0 0 0 0-3.47 2.33 2.33 0 0 0-1.64-.61 2.28 2.28 0 0 0-1.69.68 2.5 2.5 0 0 0 0 3.38zm12.13-4.48v5.57h-.6v-5H137l-.56 3.93a1.39 1.39 0 0 1-.44.86 1.22 1.22 0 0 1-.85.3 2.24 2.24 0 0 1-.66-.09l.11-.45a1.54 1.54 0 0 0 .37 0 .8.8 0 0 0 .65-.26 1.2 1.2 0 0 0 .26-.65l.58-4.22zm5.83 0l2.48 5.57h-.6l-.5-1.11h-3.56l-.5 1.11h-.6l2.47-5.57zm-2 4h3.13l-1.48-3.43h-.18zm9.72-2.19a2 2 0 0 1 1.53.63 1.89 1.89 0 0 1 .44 1.24 1.88 1.88 0 0 1-2 1.89h-2.71v-5.57h4.08v.49h-3.46v1.31zm-2.13 3.24h2.14a1.29 1.29 0 0 0 1.07-.43 1.45 1.45 0 0 0 .31-.93 1.42 1.42 0 0 0-.3-.9 1.37 1.37 0 0 0-1.15-.46h-2.07zm11.48-4.28a3 3 0 0 1-.05 4.09 3.1 3.1 0 0 1-4.21 0 2.92 2.92 0 0 1 .06-4.14 3.08 3.08 0 0 1 4.21.08zm-3.84 3.71a2.35 2.35 0 0 0 1.69.67 2.3 2.3 0 0 0 1.65-.64 2.49 2.49 0 0 0 0-3.47 2.32 2.32 0 0 0-1.64-.61 2.28 2.28 0 0 0-1.69.68 2.5 2.5 0 0 0 0 3.38zm11.39-1.19a2.14 2.14 0 0 1-1.57.65h-2v1.64h-.6v-5.58h2.63a2.09 2.09 0 0 1 1.52.61 1.94 1.94 0 0 1 0 2.67zm-.47-.3a1.56 1.56 0 0 0 .38-1 1.42 1.42 0 0 0-.36-1 1.43 1.43 0 0 0-1.15-.47h-2v2.91h2.09a1.33 1.33 0 0 0 1.05-.49zm5.93-2.99l2.48 5.57H178l-.5-1.11H174l-.5 1.11h-.6l2.47-5.57zm-2 4h3.13l-1.48-3.43h-.18zm5.92-4h5.22v.51H183v5.06h-.6v-5.05h-2.3zm12.05.77a3 3 0 0 1-.05 4.09 3.1 3.1 0 0 1-4.21 0 2.92 2.92 0 0 1 .05-4.14 3.08 3.08 0 0 1 4.21.08zm-3.84 3.71a2.35 2.35 0 0 0 1.69.67 2.3 2.3 0 0 0 1.65-.64 2.49 2.49 0 0 0 0-3.47 2.32 2.32 0 0 0-1.64-.61 2.28 2.28 0 0 0-1.69.68 2.5 2.5 0 0 0 0 3.38zm11.39-1.19a2.14 2.14 0 0 1-1.57.65h-2v1.64h-.6v-5.58h2.63a2.09 2.09 0 0 1 1.52.61 1.89 1.89 0 0 1 .56 1.36 1.92 1.92 0 0 1-.54 1.32zm-.47-.3a1.55 1.55 0 0 0 .38-1 1.42 1.42 0 0 0-.36-1 1.43 1.43 0 0 0-1.15-.47h-2v2.91h2.09a1.32 1.32 0 0 0 1.04-.49zm4.11 1.84l3.83-4.82h.61v5.57h-.56v-4.83l-3.84 4.82h-.62v-5.57h.57zm7.53-4.27a2.22 2.22 0 0 1 1.47-.56H215v5.57h-.58V77h-2.26l-1.09 1.63h-.66l1.18-1.73a1.81 1.81 0 0 1-1-.69 2 2 0 0 1-.39-1.18 1.92 1.92 0 0 1 .69-1.41zm.35 2.41a1.47 1.47 0 0 0 1.12.47h2.08v-2.91h-2.07a1.5 1.5 0 0 0-1.09.43 1.43 1.43 0 0 0-.4 1 1.46 1.46 0 0 0 .36.98z"/><path class="cls-2" d="M0 0h239.33v110.33H0z"/><path class="cls-1" d="M41.54 68.15a14.45 14.45 0 0 0 2.16 1.21l.52-1c.37-.64 2.19-3.94.93-6-1.06-1.71-3.74-2.15-4.12-2.21l-6.14-.53a3.88 3.88 0 0 1 1.32 1.75c.11.3.23.59.37.88l4.16.36A4 4 0 0 1 43 63.68c.3.49-.26 2.25-1 3.48z"/><path class="cls-3" d="M49.53 78.38a21.78 21.78 0 0 1-3.13-.23c-5.3 4.48-9.54 8-10.44 8.77A10.65 10.65 0 0 1 34 88.27a8.16 8.16 0 0 1 .73-1.81l5.36-10.23A22.47 22.47 0 0 1 37.93 75l-5.37 10.29c-.78 1.42-1.83 3.94-.21 5l.11.07a2.32 2.32 0 0 0 1.37.48c.9 0 1.9-.53 3.69-2 1-.83 6.25-5.23 12.46-10.48z"/><path class="cls-4" d="M36.13 61.27c.12.34.27.67.42 1l4.27.37h.11a1.24 1.24 0 0 0 .07-2.47l-6-.53a3.88 3.88 0 0 1 1.13 1.63z"/><path class="cls-5" d="M30.59 59.26l-5.23-.45a1.24 1.24 0 0 0-.22 2.46l3.63.32a3.88 3.88 0 0 1 1.82-2.33z"/><path class="cls-6" d="M58.9 44.81a5.13 5.13 0 0 1 1.78 3.83 4.7 4.7 0 0 1-4.8 4.59H50.1a3.17 3.17 0 1 0 0 6.34h5.8a4.7 4.7 0 0 1 4.78 4.58A5.14 5.14 0 0 1 58.85 68l-.09.06h8.07a21.18 21.18 0 0 0 0-23.4h-8.07z"/><path class="cls-7" d="M70 56.4a20.12 20.12 0 0 0-4.39-12.79 10.65 10.65 0 0 1 .66 4.28c-.3 5.77-1.68 15.48-7.46 20.21a15.09 15.09 0 0 1-2 1.31l-.26.14a14.78 14.78 0 0 1-7 1.77 15 15 0 0 1-14-9.7 3.18 3.18 0 0 0-5.95 2.23 21.38 21.38 0 0 0 19.93 13.82 21.11 21.11 0 0 0 14.93-6.19h.07C68.4 67.61 70 62.28 70 56.4z"/><path class="cls-8" d="M70.8 56.4A21.09 21.09 0 0 0 68 45.9l-.18-.29c-.35-.59-.72-1.16-1.12-1.71l-.41-.55c-.21-.26-.41-.52-.63-.77s-.53-.6-.81-.88c-.11-.12-.21-.24-.33-.36a21.23 21.23 0 0 0-34.55 6.81 3.17 3.17 0 0 0 5.85 2.47 14.9 14.9 0 0 1 23.08-5.81 5.56 5.56 0 0 1 .94 1.09h.22c7 7.51 6.23 23.12 6.2 23.61A21.15 21.15 0 0 0 70.8 56.4z"/><path class="cls-1" d="M33.65 87.13a1.24 1.24 0 0 1-1.1-1.81l9.51-18.16a1.24 1.24 0 1 1 2.19 1.15l-9.5 18.15a1.24 1.24 0 0 1-1.1.67z"/><path class="cls-9" d="M55.38 52.52h.5a4.15 4.15 0 0 0 3.49-1.85l-1.85-.11c-.5 0-1.92-.41-2.11-1.12-.27-1.05.42-2.7 1.69-5.15l-.27-.21h.38l.91-1.7a1.24 1.24 0 0 0-2.18-1.17c-2.33 4.31-3.51 6.67-2.93 8.88a3.78 3.78 0 0 0 2.37 2.43z"/><path class="cls-10" d="M72.93 51.47l-2-.12a22.09 22.09 0 0 1 .44 2.51l1.43.08h.07a1.24 1.24 0 0 0 .07-2.47z"/><path class="cls-11" d="M49.53 34.43a22.05 22.05 0 0 1 2.94.2L66.9 22.3a1.24 1.24 0 0 0-1.61-1.88l-16.42 14z"/><path class="cls-12" d="M30 51.93l-.06-.06-.14-.18-.07-.09-.12-.18-.07-.11-.1-.18c-3.53 3-5.95 5.12-6.24 5.41a1.24 1.24 0 0 0 .8 2.11 1.22 1.22 0 0 0 .85-.35c.28-.27 2.69-2.34 6.31-5.46a3.85 3.85 0 0 1-1.16-.91z"/><path class="cls-1" d="M49.53 34.43a22 22 0 0 1 2.94.2L66 23c-1 1.73-4.7 8.38-7.46 13.36a21.45 21.45 0 0 1 2.19 1.15c3.17-5.71 7.59-13.59 7.61-13.63.76-1.12 1.24-2.79.1-3.84a1.9 1.9 0 0 0-1.29-.5 2.91 2.91 0 0 0-1.89.85l-16.42 14z"/><path class="cls-13" d="M55.41 49.44c-.27-1 .41-2.67 1.65-5.08a13.88 13.88 0 0 0-2.2-1.13c-1.59 3.07-2.33 5-1.85 6.84a3.78 3.78 0 0 0 2.36 2.45h.5a4.14 4.14 0 0 0 3.49-1.86l-1.85-.1c-.57-.07-1.92-.44-2.1-1.12z"/><path class="cls-14" d="M24.75 58.64c0-.13-.05-.16.13-.33s2.68-2.34 6.31-5.46a3.85 3.85 0 0 1-1.78-1.73c-3.53 3-5.94 5.12-6.24 5.4a2.67 2.67 0 0 0-.77 2.91 3 3 0 0 0 2.74 1.85l3.74.32a3.88 3.88 0 0 1 1.95-2.31l-5.54-.48a1.26 1.26 0 0 1-.54-.17z"/><path class="cls-15" d="M49.53 34.43a21.83 21.83 0 0 1 2.88.19L66 23c-1 1.73-4.69 8.36-7.45 13.34a21.3 21.3 0 0 1 2.2 1.15c3.17-5.71 7.57-13.56 7.59-13.6.76-1.12 1.24-2.79.1-3.84a1.9 1.9 0 0 0-1.29-.5 2.9 2.9 0 0 0-1.89.85l-16.42 14z"/><path class="cls-16" d="M76 53.06c-1-1.57-3.72-1.72-4.47-1.73h-.6a21.82 21.82 0 0 1 .45 2.5h.06a5.36 5.36 0 0 1 2.45.53 2.48 2.48 0 0 1-.76 1.14l-1.6 1.36a22.06 22.06 0 0 1-.36 3.55l3.59-3c1.13-1.12 2.16-2.86 1.24-4.35z"/><path class="cls-1" d="M55.85 45.24a1.26 1.26 0 0 1-.57-.14 1.24 1.24 0 0 1-.54-1.67c.35-.68.75-1.43 1.2-2.25 2.12-4 10.25-18.43 10.33-18.57a1.24 1.24 0 0 1 2.16 1.21c-.08.14-8.19 14.6-10.31 18.53-.43.81-.83 1.54-1.17 2.21a1.23 1.23 0 0 1-1.1.68z"/></g></g></svg>