<svg id="Layer_1" xmlns="http://www.w3.org/2000/svg" viewBox="0 0 201.7 79.7"><style>.st0{fill:#1f1d59}.st1{fill:none}.st2{fill:url(#SVGID_1_)}.st3{fill:url(#SVGID_2_)}.st4{fill:url(#SVGID_3_)}.st5{fill:url(#SVGID_4_)}.st6{fill:url(#SVGID_5_)}.st7{fill:url(#SVGID_6_)}.st8{fill:url(#SVGID_7_)}.st9{fill:url(#SVGID_8_)}.st10{fill:url(#SVGID_9_)}.st11{fill:url(#SVGID_10_)}.st12{fill:url(#SVGID_11_)}.st13{fill:url(#SVGID_12_)}.st14{fill:url(#SVGID_13_)}.st15{fill:url(#SVGID_14_)}</style><title>Asset 3</title><g id="Layer_2"><g id="Слой_1"><path class="st0" d="M65.2 48v-3.5h3.5V48H72v-7.4h-3.3v-2.7H72v-7.2h-3.3v3.5h-3.5v-3.5c0-.9.4-1.8 1-2.4.6-.7 1.5-1 2.4-1h3.3c.9 0 1.8.3 2.4 1 .6.6 1 1.5 1 2.4V48c0 1.9-1.6 3.4-3.5 3.5h-3.2c-1.8 0-3.4-1.6-3.4-3.5zm12.9 3.4V27.2h3.5v10.6h3.3V27.2h3.5v24.2h-3.5V40.6h-3.3v10.9h-3.5zm13-3.4V30.7c0-.9.4-1.8 1-2.4.6-.7 1.5-1 2.4-1h3.3c.9 0 1.8.3 2.4 1 .6.6 1 1.5 1 2.4v7.5c0 .8-.4 1.5-1 1.9-.7.5-1.6.8-2.4.8h-3.3V48h3.3v-3.5h3.5V48c0 1.9-1.6 3.4-3.5 3.5h-3.3c-1.9-.1-3.4-1.6-3.4-3.5zm3.5-9.8h3.3v-7.5h-3.3v7.5zm9.5 13.2V27.2h6.7c1.9 0 3.4 1.6 3.5 3.5v8.6c0 .8-.4 1.5-1 1.9-.7.5-1.6.8-2.4.8h-3.3v9.4h-3.5zm3.4-12.1h3.3v-8.6h-3.3v8.6zm9.2 12.1V30.7c0-1.9 1.6-3.4 3.5-3.5h6.7v3.5h-6.7v20.7h-3.5zm11.9-3.4V30.7c0-.9.4-1.8 1-2.4.6-.7 1.5-1 2.4-1h3.3c.9 0 1.8.3 2.4 1 .6.6 1 1.5 1 2.4V48c0 1.9-1.6 3.4-3.5 3.5H132c-1.9-.1-3.4-1.6-3.4-3.5zm3.4 0h3.3V30.7H132V48zm9.5 3.4V27.2h5l3.5 15 3.5-15h4.9v24.2H155V34.3l-4 17.1h-2l-4-17.1v17.1h-3.5zm19.8-3.4V30.7c0-.9.4-1.8 1-2.4.6-.7 1.5-1 2.4-1h3.3c.9 0 1.8.3 2.4 1 .6.6 1 1.5 1 2.4v7.5c0 .8-.4 1.5-1 1.9-.7.5-1.6.8-2.4.8h-3.3V48h3.3v-3.5h3.5V48c0 1.9-1.6 3.4-3.5 3.5h-3.3c-1.9-.1-3.4-1.6-3.4-3.5zm3.4-9.8h3.3v-7.5h-3.3v7.5zm9.5 13.2V27.2h6.7c1.9 0 3.4 1.6 3.5 3.5v8.6c0 .8-.4 1.5-1 1.9-.7.5-1.6.8-2.4.8h-3.3v9.4h-3.5zm3.5-12.1h3.3v-8.6h-3.3v8.6zm9.1 8.7v-7.4c0-.8.4-1.5 1-1.9.7-.5 1.6-.8 2.4-.8h3.3v-7.2h-3.3v3.5h-3.5v-3.5c0-.9.4-1.8 1-2.4.6-.7 1.5-1 2.4-1h3.3c.9 0 1.8.3 2.4 1 .6.6 1 1.5 1 2.4v20.7h-6.7c-1.7 0-3.3-1.5-3.3-3.4zm3.5 0h3.3v-7.4h-3.3V48zM65.7 59.5H69c0-.5-.3-1-.7-1.4-.4-.4-1-.6-1.6-.6-.7 0-1.3.2-1.8.7l-.3-.4c.6-.5 1.3-.8 2.1-.8 1.6-.1 3 1.1 3.1 2.7s-1.1 3-2.7 3.1h-.3c-.8 0-1.5-.3-2.1-.8l.4-.4c.5.5 1.1.7 1.8.7s1.3-.2 1.7-.7c.4-.4.6-1 .6-1.6h-3.3v-.5zm11.4-2.4v5.6h-.6v-5h-2.7l-.6 3.9c0 .3-.2.6-.4.9-.2.2-.5.3-.8.3-.2 0-.4 0-.7-.1l.1-.4h.4c.2 0 .5-.1.7-.3.1-.2.2-.4.3-.7l.6-4.2h3.7zm2.8 0h4.2v.5h-3.6v1.8h3.2v.5h-3.2v2.2h3.8v.5h-4.4v-5.5zm7.6 0v2.3h1.1c.2 0 .4 0 .5-.1l.3-.3.8-1.3c.1-.2.3-.4.6-.6.2-.1.4-.1.7-.1h.4v.5h-.1c-.2 0-.4 0-.6.1-.2.1-.3.2-.4.4l-.8 1.2c-.1.2-.2.3-.4.4l2.2 3.1h-.7l-1.9-2.8c-.2 0-.3.1-.5.1h-1.1v2.7H87v-5.6h.5zm6.3 0H99v.5h-2.3v5.1h-.6v-5h-2.3v-.6zm11.9 3.2c-.4.4-1 .7-1.6.7h-2v1.6h-.6V57h2.6c.6 0 1.1.2 1.5.6.4.4.6.8.6 1.4.1.5-.1 1-.5 1.3zm-.4-.3c.2-.3.4-.6.4-1s-.1-.7-.4-1c-.3-.3-.7-.5-1.2-.5h-2v2.9h2.1c.4.1.8-.1 1.1-.4zm8.4-2.2c1.1 1.2 1 3-.1 4.1-1.2 1.1-3 1.1-4.2 0-1.1-1.2-1.1-3 0-4.1 1.3-1.1 3.1-1.1 4.3 0zm-3.9 3.7c.5.4 1.1.7 1.7.7.6 0 1.2-.2 1.6-.6.9-1 .9-2.5 0-3.5-.4-.4-1-.6-1.6-.6-.6 0-1.2.2-1.7.7-.8.9-.8 2.4 0 3.3zm12.2-4.4v5.6h-.6v-5h-2.7l-.6 3.9c0 .3-.2.6-.4.9-.2.2-.5.3-.9.3-.2 0-.4 0-.7-.1l.1-.4h.4c.2 0 .5-.1.6-.3.1-.2.2-.4.3-.7l.6-4.2h3.9zm5.8 0l2.5 5.6h-.6l-.5-1.1h-3.6l-.5 1.1h-.6l2.5-5.6h.8zm-2 4h3.1l-1.5-3.4h-.2l-1.4 3.4zm9.7-2.2c.6 0 1.1.2 1.5.6.3.3.4.8.4 1.2 0 1-.8 1.9-1.9 1.9h-2.8V57h4.1v.5h-3.5v1.3l2.2.1zm-2.1 3.2h2.1c.4 0 .8-.1 1.1-.4.2-.3.3-.6.3-.9 0-.3-.1-.6-.3-.9-.3-.3-.7-.5-1.1-.5h-2.1v2.7zm11.5-4.3c1.1 1.2 1 3-.1 4.1-1.2 1.1-3 1.1-4.2 0-1.1-1.2-1.1-3 0-4.1 1.3-1.1 3.1-1.1 4.3 0zm-3.9 3.7c.5.4 1.1.7 1.7.7.6 0 1.2-.2 1.6-.6.9-1 .9-2.5 0-3.5-.4-.4-1-.6-1.6-.6-.6 0-1.2.2-1.7.7-.9.9-.9 2.4 0 3.3zm11.4-1.2c-.4.4-1 .7-1.6.7h-2v1.6h-.6V57h2.6c.6 0 1.1.2 1.5.6.8.8.8 2 .1 2.7zm-.5-.3c.2-.3.4-.6.4-1s-.1-.7-.4-1c-.3-.3-.7-.5-1.1-.5h-2v2.9h2.1c.4.1.8-.1 1-.4zm6-2.9l2.5 5.6h-.7l-.5-1.1h-3.5l-.5 1.1h-.6l2.5-5.6h.8zm-2 4h3.1l-1.5-3.4h-.2l-1.4 3.4zm5.9-4h5.2v.5h-2.3v5.1h-.6v-5h-2.3v-.6zm12 .7c1.1 1.2 1 3-.1 4.1-1.2 1.1-3 1.1-4.2 0-1.1-1.2-1.1-3 0-4.1 1.3-1.1 3.2-1.1 4.3 0zm-3.8 3.7c.5.4 1.1.7 1.7.7.6 0 1.2-.2 1.6-.6.9-1 .9-2.5 0-3.5-.4-.4-1-.6-1.6-.6-.6 0-1.2.2-1.7.7-.9.9-.9 2.4 0 3.3zm11.4-1.2c-.4.4-1 .7-1.6.7h-2v1.6h-.6V57h2.6c.6 0 1.1.2 1.5.6.4.4.6.8.6 1.4 0 .5-.2 1-.5 1.3zm-.5-.3c.2-.3.4-.6.4-1s-.1-.7-.4-1c-.3-.3-.7-.5-1.1-.5h-2v2.9h2.1c.4.1.8-.1 1-.4zm4.1 1.9l3.8-4.8h.6v5.6h-.6v-4.8l-3.8 4.8h-.6v-5.6h.6v4.8zm7.6-4.3c.4-.4.9-.6 1.5-.6h2.6v5.6h-.6V61h-2.3l-1.1 1.6h-.7l1.2-1.7c-.4-.1-.8-.4-1-.7-.3-.3-.4-.8-.4-1.2.1-.5.3-1 .8-1.4zm.3 2.4c.3.3.7.5 1.1.5h2.1v-2.9H194c-.4 0-.8.1-1.1.4-.3.3-.4.6-.4 1s.2.7.4 1z"/><path class="st1" d="M-18.3-16H221V94.3H-18.3z"/><path class="st0" d="M23.2 52.2c.7.5 1.4.9 2.2 1.2l.5-1c.4-.6 2.2-3.9.9-6-1.1-1.7-3.7-2.2-4.1-2.2l-6.1-.5c.6.4 1.1 1.1 1.3 1.8.1.3.2.6.4.9l4.2.4c.8.1 1.6.5 2.3 1.1.3.5-.3 2.3-1 3.5l-.6.8z"/><linearGradient id="SVGID_1_" gradientUnits="userSpaceOnUse" x1="13.165" y1="13.08" x2="31.647" y2="13.08" gradientTransform="matrix(1 0 0 -1 0 80)"><stop offset="0" stop-color="#1f1d59"/><stop offset="1" stop-color="#0e0f20"/></linearGradient><path class="st2" d="M31.2 62.4c-1 0-2.1-.1-3.1-.2-5.3 4.5-9.5 8-10.4 8.8-.6.5-1.3 1-2 1.3.2-.6.4-1.2.7-1.8l5.4-10.2c-.7-.4-1.5-.8-2.2-1.2l-5.4 10.3c-.8 1.4-1.8 3.9-.2 5l.1.1c.4.3.9.5 1.4.5.9 0 1.9-.5 3.7-2 1-.8 6.3-5.2 12.5-10.5l-.5-.1z"/><linearGradient id="SVGID_2_" gradientUnits="userSpaceOnUse" x1="16.637" y1="34.86" x2="23.827" y2="34.86" gradientTransform="matrix(1 0 0 -1 0 80)"><stop offset="0" stop-color="#0e0f20"/><stop offset="1" stop-color="#1f1d59"/></linearGradient><path class="st3" d="M17.8 45.3c.1.3.3.7.4 1l4.3.4h.1c.7 0 1.2-.6 1.2-1.3 0-.6-.5-1.1-1.1-1.2l-6-.5c.5.4.9.9 1.1 1.6z"/><linearGradient id="SVGID_3_" gradientUnits="userSpaceOnUse" x1="5.677" y1="35.8" x2="12.257" y2="35.8" gradientTransform="matrix(1 0 0 -1 0 80)"><stop offset="0" stop-color="#1f1d59"/><stop offset=".48" stop-color="#0e0f20"/><stop offset="1" stop-color="#1f1d59"/></linearGradient><path class="st4" d="M12.3 43.3L7 42.8c-.7 0-1.2.6-1.2 1.2s.4 1.1 1 1.2l3.6.3c.3-.9 1-1.7 1.9-2.2z"/><linearGradient id="SVGID_4_" gradientUnits="userSpaceOnUse" x1="28.596" y1="39.64" x2="52.022" y2="39.64" gradientTransform="matrix(1 0 0 -1 0 80)"><stop offset="0" stop-color="#40c7f3"/><stop offset="1" stop-color="#1f1d59"/></linearGradient><path class="st5" d="M40.6 28.8c1.1 1 1.8 2.4 1.8 3.8-.1 2.6-2.2 4.6-4.8 4.6h-5.8c-1.8 0-3.2 1.4-3.2 3.2 0 1.8 1.4 3.2 3.2 3.2h5.8c2.6 0 4.7 2 4.8 4.6 0 1.5-.7 2.9-1.8 3.8l-.1.1h8.1c4.7-7.1 4.7-16.3 0-23.4h-8.1l.1.1z"/><linearGradient id="SVGID_5_" gradientUnits="userSpaceOnUse" x1="31.389" y1="18.33" x2="31.389" y2="52.39" gradientTransform="matrix(1 0 0 -1 0 80)"><stop offset="0" stop-color="#40c7f3"/><stop offset="1" stop-color="#1f1d59"/></linearGradient><path class="st6" d="M51.7 40.4c.1-4.6-1.5-9.2-4.4-12.8.5 1.4.7 2.8.7 4.3-.3 5.8-1.7 15.5-7.5 20.2-.6.5-1.3.9-2 1.3l-.3.1c-2.2 1.2-4.6 1.8-7 1.8-6.2 0-11.8-3.9-14-9.7-.7-1.6-2.6-2.4-4.2-1.7-1.5.6-2.3 2.3-1.8 3.9 3.1 8.3 11.1 13.8 19.9 13.8 5.6 0 11-2.2 14.9-6.2h.1c4-3.8 5.6-9.1 5.6-15z"/><linearGradient id="SVGID_6_" gradientUnits="userSpaceOnUse" x1="11.386" y1="43.669" x2="52.467" y2="43.669" gradientTransform="matrix(1 0 0 -1 0 80)"><stop offset="0" stop-color="#1f1d59"/><stop offset="1" stop-color="#40c7f3"/></linearGradient><path class="st7" d="M52.5 40.4c0-3.7-1-7.3-2.8-10.5l-.2-.3c-.3-.6-.7-1.2-1.1-1.7l-.4-.5c-.2-.3-.4-.5-.6-.8s-.5-.6-.8-.9c-.1-.1-.2-.2-.3-.4-8.3-8.3-21.7-8.2-30 .1-1.9 1.9-3.5 4.2-4.5 6.7-.7 1.6.1 3.5 1.7 4.2s3.5-.1 4.2-1.7c3-7.6 11.7-11.1 19.3-7.9 1.3.5 2.5 1.3 3.6 2.1.4.3.7.7.9 1.1h.2c7 7.5 6.2 23.1 6.2 23.6 3-3.7 4.6-8.3 4.6-13.1z"/><path class="st0" d="M15.3 71.1c-.7 0-1.2-.6-1.2-1.2 0-.2 0-.4.1-.6l9.5-18.2c.3-.6 1-.9 1.6-.6s.9 1 .6 1.6c0 .1-.1.1-.1.2l-9.5 18.2c-.1.4-.5.6-1 .6z"/><linearGradient id="SVGID_7_" gradientUnits="userSpaceOnUse" x1="34.531" y1="49.425" x2="41.037" y2="49.425" gradientTransform="matrix(1 0 0 -1 0 80)"><stop offset=".11" stop-color="#1f1d59"/><stop offset=".21" stop-color="#17163e"/><stop offset=".32" stop-color="#101128"/><stop offset=".4" stop-color="#0e0f20"/><stop offset=".7" stop-color="#0f0f22"/><stop offset=".81" stop-color="#111129"/><stop offset=".89" stop-color="#141434"/><stop offset=".95" stop-color="#191845"/><stop offset="1" stop-color="#1f1d59"/></linearGradient><path class="st8" d="M37 36.5h.5c1.4 0 2.7-.7 3.5-1.8l-1.8-.1c-.5 0-1.9-.4-2.1-1.1-.3-1 .4-2.7 1.7-5.2l-.3-.2h.4l.9-1.7c.3-.6 0-1.4-.6-1.6-.6-.3-1.2-.1-1.6.5-2.3 4.3-3.5 6.7-2.9 8.9.3 1 1.2 1.9 2.3 2.3z"/><linearGradient id="SVGID_8_" gradientUnits="userSpaceOnUse" x1="52.577" y1="43.355" x2="55.757" y2="43.355" gradientTransform="matrix(1 0 0 -1 0 80)"><stop offset=".11" stop-color="#1f1d59"/><stop offset=".21" stop-color="#17163e"/><stop offset=".32" stop-color="#101128"/><stop offset=".4" stop-color="#0e0f20"/><stop offset=".7" stop-color="#0f0f22"/><stop offset=".81" stop-color="#111129"/><stop offset=".89" stop-color="#141434"/><stop offset=".95" stop-color="#191845"/><stop offset="1" stop-color="#1f1d59"/></linearGradient><path class="st9" d="M54.6 35.5l-2-.1c.2.8.3 1.7.4 2.5l1.4.1h.1c.7 0 1.2-.6 1.2-1.3 0-.7-.5-1.2-1.1-1.2z"/><linearGradient id="SVGID_9_" gradientUnits="userSpaceOnUse" x1="30.537" y1="68.6" x2="48.997" y2="68.6" gradientTransform="matrix(1 0 0 -1 0 80)"><stop offset="0" stop-color="#1f1d59"/><stop offset=".48" stop-color="#0e0f20"/><stop offset="1" stop-color="#1f1d59"/></linearGradient><path class="st10" d="M31.2 18.4c1 0 2 .1 2.9.2L48.6 6.3c.5-.5.5-1.3 0-1.8-.4-.4-1.1-.5-1.6-.1l-16.4 14h.6z"/><linearGradient id="SVGID_10_" gradientUnits="userSpaceOnUse" x1="4.457" y1="41.11" x2="12.857" y2="41.11" gradientTransform="matrix(1 0 0 -1 0 80)"><stop offset="0" stop-color="#1f1d59"/><stop offset=".48" stop-color="#0e0f20"/><stop offset="1" stop-color="#1f1d59"/></linearGradient><path class="st11" d="M11.7 35.9l-.2-.2-.1-.1-.1-.2-.1-.1-.1-.2c-3.5 3-5.9 5.1-6.2 5.4-.5.5-.5 1.3 0 1.8.2.2.5.3.8.4.3 0 .6-.1.9-.3.3-.3 2.7-2.3 6.3-5.5-.5-.3-.9-.6-1.2-1z"/><path class="st0" d="M31.2 18.4c1 0 2 .1 2.9.2L47.7 7c-1 1.7-4.7 8.4-7.5 13.4.8.3 1.5.7 2.2 1.2C45.6 15.8 50 7.9 50 7.9c.8-1.1 1.2-2.8.1-3.8-.4-.3-.8-.5-1.3-.5-.7 0-1.4.3-1.9.9l-16.4 14 .7-.1z"/><linearGradient id="SVGID_11_" gradientUnits="userSpaceOnUse" x1="37.779" y1="43.48" x2="37.779" y2="52.78" gradientTransform="matrix(1 0 0 -1 0 80)"><stop offset="0" stop-color="#0e0f20"/><stop offset=".68" stop-color="#1f1d59"/></linearGradient><path class="st12" d="M37.1 33.4c-.3-1 .4-2.7 1.7-5.1-.7-.4-1.4-.8-2.2-1.1-1.6 3.1-2.3 5-1.8 6.8.4 1.1 1.2 2.1 2.4 2.5h.5c1.4 0 2.7-.7 3.5-1.9l-1.8-.1c-.8 0-2.1-.4-2.3-1.1z"/><linearGradient id="SVGID_12_" gradientUnits="userSpaceOnUse" x1="3.913" y1="39.64" x2="12.857" y2="39.64" gradientTransform="matrix(1 0 0 -1 0 80)"><stop offset="0" stop-color="#1f1d59"/><stop offset="1" stop-color="#0e0f20"/></linearGradient><path class="st13" d="M6.4 42.6c0-.1 0-.2.1-.3s2.7-2.3 6.3-5.5c-.8-.4-1.4-1-1.8-1.7-3.5 3-5.9 5.1-6.2 5.4-.8.7-1.1 1.9-.8 2.9.5 1.1 1.5 1.8 2.7 1.8l3.7.3c.3-1 1-1.8 2-2.3L7 42.8c-.2 0-.4-.1-.6-.2z"/><linearGradient id="SVGID_13_" gradientUnits="userSpaceOnUse" x1="30.477" y1="67.48" x2="50.755" y2="67.48" gradientTransform="matrix(1 0 0 -1 0 80)"><stop offset="0" stop-color="#0e0f20"/><stop offset="1" stop-color="#1f1d59"/></linearGradient><path class="st14" d="M31.2 18.4c1 0 1.9.1 2.9.2L47.7 7c-1 1.7-4.7 8.4-7.5 13.3.8.3 1.5.7 2.2 1.2C45.6 15.8 50 7.9 50 7.9c.8-1.1 1.2-2.8.1-3.8-.4-.3-.8-.5-1.3-.5-.7 0-1.4.3-1.9.9l-16.4 14 .7-.1z"/><linearGradient id="SVGID_14_" gradientUnits="userSpaceOnUse" x1="52.557" y1="40.13" x2="58.007" y2="40.13" gradientTransform="matrix(1 0 0 -1 0 80)"><stop offset="0" stop-color="#0e0f20"/><stop offset="1" stop-color="#1f1d59"/></linearGradient><path class="st15" d="M57.7 37.1c-1-1.6-3.7-1.7-4.5-1.7h-.6c.2.8.3 1.7.4 2.5h.1c.8 0 1.7.2 2.4.5-.1.4-.4.8-.8 1.1l-1.6 1.4c0 1.2-.1 2.4-.4 3.5l3.6-3c1.3-1.1 2.3-2.9 1.4-4.3z"/><path class="st0" d="M37.5 29.2c-.2 0-.4 0-.6-.1-.6-.3-.9-1.1-.5-1.7.3-.7.8-1.4 1.2-2.3 2.1-4 10.3-18.4 10.3-18.6.4-.6 1.1-.7 1.7-.4.5.3.7 1 .4 1.6 0 .3-8.1 14.7-10.2 18.7-.4.8-.8 1.5-1.2 2.2-.2.4-.6.6-1.1.6z"/></g></g></svg>