<?xml version="1.0" encoding="utf-8"?>
<!-- Generator: Adobe Illustrator 21.0.1, SVG Export Plug-In . SVG Version: 6.00 Build 0)  -->
<svg version="1.1" id="Layer_1" xmlns="http://www.w3.org/2000/svg" xmlns:xlink="http://www.w3.org/1999/xlink" x="0px" y="0px"
	 viewBox="0 0 201.7 79.7" style="enable-background:new 0 0 201.7 79.7;" xml:space="preserve">
<style type="text/css">
	.st0{fill:#1F1D59;}
	.st1{fill:none;}
	.st2{fill:url(#SVGID_1_);}
	.st3{fill:url(#SVGID_2_);}
	.st4{fill:url(#SVGID_3_);}
	.st5{fill:url(#SVGID_4_);}
	.st6{fill:url(#SVGID_5_);}
	.st7{fill:url(#SVGID_6_);}
	.st8{fill:url(#SVGID_7_);}
	.st9{fill:url(#SVGID_8_);}
	.st10{fill:url(#SVGID_9_);}
	.st11{fill:url(#SVGID_10_);}
	.st12{fill:url(#SVGID_11_);}
	.st13{fill:url(#SVGID_12_);}
	.st14{fill:url(#SVGID_13_);}
	.st15{fill:url(#SVGID_14_);}
</style>
<title>Asset 3</title>
<g id="Layer_2">
	<g id="Слой_1">
		<g>
			<g>
				<path class="st0" d="M65.2,48v-3.5h3.5V48H72v-7.4h-3.3v-2.7H72v-7.2h-3.3v3.5h-3.5v-3.5c0-0.9,0.4-1.8,1-2.4
					c0.6-0.7,1.5-1,2.4-1h3.3c0.9,0,1.8,0.3,2.4,1c0.6,0.6,1,1.5,1,2.4V48c0,1.9-1.6,3.4-3.5,3.5h-3.2C66.8,51.5,65.2,49.9,65.2,48z
					"/>
				<path class="st0" d="M78.1,51.4V27.2h3.5v10.6h3.3V27.2h3.5v24.2h-3.5V40.6h-3.3v10.9H78.1z"/>
				<path class="st0" d="M91.1,48V30.7c0-0.9,0.4-1.8,1-2.4c0.6-0.7,1.5-1,2.4-1h3.3c0.9,0,1.8,0.3,2.4,1c0.6,0.6,1,1.5,1,2.4v7.5
					c0,0.8-0.4,1.5-1,1.9c-0.7,0.5-1.6,0.8-2.4,0.8h-3.3V48h3.3v-3.5h3.5V48c0,1.9-1.6,3.4-3.5,3.5h-3.3
					C92.6,51.4,91.1,49.9,91.1,48z M94.6,38.2h3.3v-7.5h-3.3V38.2z"/>
				<path class="st0" d="M104.1,51.4V27.2h6.7c1.9,0,3.4,1.6,3.5,3.5v8.6c0,0.8-0.4,1.5-1,1.9c-0.7,0.5-1.6,0.8-2.4,0.8h-3.3v9.4
					H104.1z M107.5,39.3h3.3v-8.6h-3.3L107.5,39.3z"/>
				<path class="st0" d="M116.7,51.4V30.7c0-1.9,1.6-3.4,3.5-3.5h6.7v3.5h-6.7v20.7H116.7z"/>
				<path class="st0" d="M128.6,48V30.7c0-0.9,0.4-1.8,1-2.4c0.6-0.7,1.5-1,2.4-1h3.3c0.9,0,1.8,0.3,2.4,1c0.6,0.6,1,1.5,1,2.4V48
					c0,1.9-1.6,3.4-3.5,3.5H132C130.1,51.4,128.6,49.9,128.6,48z M132,48h3.3V30.7H132V48z"/>
				<path class="st0" d="M141.5,51.4V27.2h5l3.5,15l3.5-15h4.9v24.2h-3.4V34.3L151,51.4h-2l-4-17.1v17.1H141.5z"/>
				<path class="st0" d="M161.3,48V30.7c0-0.9,0.4-1.8,1-2.4c0.6-0.7,1.5-1,2.4-1h3.3c0.9,0,1.8,0.3,2.4,1c0.6,0.6,1,1.5,1,2.4v7.5
					c0,0.8-0.4,1.5-1,1.9c-0.7,0.5-1.6,0.8-2.4,0.8h-3.3V48h3.3v-3.5h3.5V48c0,1.9-1.6,3.4-3.5,3.5h-3.3
					C162.8,51.4,161.3,49.9,161.3,48z M164.7,38.2h3.3v-7.5h-3.3V38.2z"/>
				<path class="st0" d="M174.2,51.4V27.2h6.7c1.9,0,3.4,1.6,3.5,3.5v8.6c0,0.8-0.4,1.5-1,1.9c-0.7,0.5-1.6,0.8-2.4,0.8h-3.3v9.4
					H174.2z M177.7,39.3h3.3v-8.6h-3.3V39.3z"/>
				<path class="st0" d="M186.8,48v-7.4c0-0.8,0.4-1.5,1-1.9c0.7-0.5,1.6-0.8,2.4-0.8h3.3v-7.2h-3.3v3.5h-3.5v-3.5
					c0-0.9,0.4-1.8,1-2.4c0.6-0.7,1.5-1,2.4-1h3.3c0.9,0,1.8,0.3,2.4,1c0.6,0.6,1,1.5,1,2.4v20.7h-6.7
					C188.4,51.4,186.8,49.9,186.8,48z M190.3,48h3.3v-7.4h-3.3V48z"/>
			</g>
			<g>
				<path class="st0" d="M65.7,59.5H69c0-0.5-0.3-1-0.7-1.4c-0.4-0.4-1-0.6-1.6-0.6c-0.7,0-1.3,0.2-1.8,0.7l-0.3-0.4
					c0.6-0.5,1.3-0.8,2.1-0.8c1.6-0.1,3,1.1,3.1,2.7s-1.1,3-2.7,3.1c-0.1,0-0.2,0-0.3,0c-0.8,0-1.5-0.3-2.1-0.8l0.4-0.4
					c0.5,0.5,1.1,0.7,1.8,0.7c0.7,0,1.3-0.2,1.7-0.7c0.4-0.4,0.6-1,0.6-1.6h-3.3V59.5z"/>
				<path class="st0" d="M77.1,57.1v5.6h-0.6v-5h-2.7l-0.6,3.9c0,0.3-0.2,0.6-0.4,0.9c-0.2,0.2-0.5,0.3-0.8,0.3
					c-0.2,0-0.4,0-0.7-0.1l0.1-0.4c0.1,0,0.2,0,0.4,0c0.2,0,0.5-0.1,0.7-0.3c0.1-0.2,0.2-0.4,0.3-0.7l0.6-4.2L77.1,57.1z"/>
				<path class="st0" d="M79.9,57.1h4.2v0.5h-3.6v1.8h3.2v0.5h-3.2v2.2h3.8v0.5h-4.4V57.1z"/>
				<path class="st0" d="M87.5,57.1v2.3h1.1c0.2,0,0.4,0,0.5-0.1c0.1-0.1,0.2-0.2,0.3-0.3l0.8-1.3c0.1-0.2,0.3-0.4,0.6-0.6
					c0.2-0.1,0.4-0.1,0.7-0.1c0.1,0,0.2,0,0.4,0v0.5h-0.1c-0.2,0-0.4,0-0.6,0.1c-0.2,0.1-0.3,0.2-0.4,0.4L90,59.2
					c-0.1,0.2-0.2,0.3-0.4,0.4l2.2,3.1h-0.7l-1.9-2.8c-0.2,0-0.3,0.1-0.5,0.1h-1.1v2.7h-0.6v-5.6H87.5z"/>
				<path class="st0" d="M93.8,57.1H99v0.5h-2.3v5.1h-0.6v-5h-2.3V57.1z"/>
				<path class="st0" d="M105.7,60.3c-0.4,0.4-1,0.7-1.6,0.7h-2v1.6h-0.6v-5.6h2.6c0.6,0,1.1,0.2,1.5,0.6c0.4,0.4,0.6,0.8,0.6,1.4
					C106.3,59.5,106.1,60,105.7,60.3z M105.3,60c0.2-0.3,0.4-0.6,0.4-1c0-0.4-0.1-0.7-0.4-1c-0.3-0.3-0.7-0.5-1.2-0.5h-2v2.9h2.1
					C104.6,60.5,105,60.3,105.3,60L105.3,60z"/>
				<path class="st0" d="M113.7,57.8c1.1,1.2,1,3-0.1,4.1c-1.2,1.1-3,1.1-4.2,0c-1.1-1.2-1.1-3,0-4.1c0,0,0,0,0,0
					C110.7,56.7,112.5,56.7,113.7,57.8L113.7,57.8z M109.8,61.5c0.5,0.4,1.1,0.7,1.7,0.7c0.6,0,1.2-0.2,1.6-0.6c0.9-1,0.9-2.5,0-3.5
					c-0.4-0.4-1-0.6-1.6-0.6c-0.6,0-1.2,0.2-1.7,0.7C109,59.1,109,60.6,109.8,61.5L109.8,61.5z"/>
				<path class="st0" d="M122,57.1v5.6h-0.6v-5h-2.7l-0.6,3.9c0,0.3-0.2,0.6-0.4,0.9c-0.2,0.2-0.5,0.3-0.9,0.3c-0.2,0-0.4,0-0.7-0.1
					l0.1-0.4c0.1,0,0.2,0,0.4,0c0.2,0,0.5-0.1,0.6-0.3c0.1-0.2,0.2-0.4,0.3-0.7l0.6-4.2L122,57.1z"/>
				<path class="st0" d="M127.8,57.1l2.5,5.6h-0.6l-0.5-1.1h-3.6l-0.5,1.1h-0.6l2.5-5.6H127.8z M125.8,61.1h3.1l-1.5-3.4h-0.2
					L125.8,61.1z"/>
				<path class="st0" d="M135.5,58.9c0.6,0,1.1,0.2,1.5,0.6c0.3,0.3,0.4,0.8,0.4,1.2c0,1-0.8,1.9-1.9,1.9c0,0-0.1,0-0.1,0h-2.7v-5.6
					h4.1v0.5h-3.5v1.3L135.5,58.9z M133.4,62.1h2.1c0.4,0,0.8-0.1,1.1-0.4c0.2-0.3,0.3-0.6,0.3-0.9c0-0.3-0.1-0.6-0.3-0.9
					c-0.3-0.3-0.7-0.5-1.1-0.5h-2.1V62.1z"/>
				<path class="st0" d="M144.9,57.8c1.1,1.2,1,3-0.1,4.1c-1.2,1.1-3,1.1-4.2,0c-1.1-1.2-1.1-3,0-4.1c0,0,0,0,0,0
					C141.9,56.7,143.7,56.7,144.9,57.8L144.9,57.8z M141,61.5c0.5,0.4,1.1,0.7,1.7,0.7c0.6,0,1.2-0.2,1.6-0.6c0.9-1,0.9-2.5,0-3.5
					c-0.4-0.4-1-0.6-1.6-0.6c-0.6,0-1.2,0.2-1.7,0.7C140.1,59.1,140.1,60.6,141,61.5L141,61.5z"/>
				<path class="st0" d="M152.4,60.3c-0.4,0.4-1,0.7-1.6,0.7h-2v1.6h-0.6v-5.6h2.6c0.6,0,1.1,0.2,1.5,0.6
					C153.1,58.4,153.1,59.6,152.4,60.3L152.4,60.3z M151.9,60c0.2-0.3,0.4-0.6,0.4-1c0-0.4-0.1-0.7-0.4-1c-0.3-0.3-0.7-0.5-1.1-0.5
					h-2v2.9h2.1C151.3,60.5,151.7,60.3,151.9,60L151.9,60z"/>
				<path class="st0" d="M157.9,57.1l2.5,5.6h-0.7l-0.5-1.1h-3.5l-0.5,1.1h-0.6l2.5-5.6H157.9z M155.9,61.1h3.1l-1.5-3.4h-0.2
					L155.9,61.1z"/>
				<path class="st0" d="M161.8,57.1h5.2v0.5h-2.3v5.1h-0.6v-5h-2.3L161.8,57.1z"/>
				<path class="st0" d="M173.8,57.8c1.1,1.2,1,3-0.1,4.1c-1.2,1.1-3,1.1-4.2,0c-1.1-1.2-1.1-3,0-4.1c0,0,0,0,0,0
					C170.8,56.7,172.7,56.7,173.8,57.8L173.8,57.8z M170,61.5c0.5,0.4,1.1,0.7,1.7,0.7c0.6,0,1.2-0.2,1.6-0.6c0.9-1,0.9-2.5,0-3.5
					c-0.4-0.4-1-0.6-1.6-0.6c-0.6,0-1.2,0.2-1.7,0.7C169.1,59.1,169.1,60.6,170,61.5L170,61.5z"/>
				<path class="st0" d="M181.4,60.3c-0.4,0.4-1,0.7-1.6,0.7h-2v1.6h-0.6v-5.6h2.6c0.6,0,1.1,0.2,1.5,0.6c0.4,0.4,0.6,0.8,0.6,1.4
					C181.9,59.5,181.7,60,181.4,60.3z M180.9,60c0.2-0.3,0.4-0.6,0.4-1c0-0.4-0.1-0.7-0.4-1c-0.3-0.3-0.7-0.5-1.1-0.5h-2v2.9h2.1
					C180.3,60.5,180.7,60.3,180.9,60L180.9,60z"/>
				<path class="st0" d="M185,61.9l3.8-4.8h0.6v5.6h-0.6v-4.8l-3.8,4.8h-0.6v-5.6h0.6L185,61.9z"/>
				<path class="st0" d="M192.6,57.6c0.4-0.4,0.9-0.6,1.5-0.6h2.6v5.6h-0.6V61h-2.3l-1.1,1.6h-0.7l1.2-1.7c-0.4-0.1-0.8-0.4-1-0.7
					c-0.3-0.3-0.4-0.8-0.4-1.2C191.9,58.5,192.1,58,192.6,57.6z M192.9,60c0.3,0.3,0.7,0.5,1.1,0.5h2.1v-2.9H194
					c-0.4,0-0.8,0.1-1.1,0.4c-0.3,0.3-0.4,0.6-0.4,1C192.5,59.4,192.7,59.7,192.9,60L192.9,60z"/>
			</g>
			<rect x="-18.3" y="-16" class="st1" width="239.3" height="110.3"/>
			<g>
				<g>
					<path class="st0" d="M23.2,52.2c0.7,0.5,1.4,0.9,2.2,1.2l0.5-1c0.4-0.6,2.2-3.9,0.9-6c-1.1-1.7-3.7-2.2-4.1-2.2l-6.1-0.5
						c0.6,0.4,1.1,1.1,1.3,1.8c0.1,0.3,0.2,0.6,0.4,0.9l4.2,0.4c0.8,0.1,1.6,0.5,2.3,1.1c0.3,0.5-0.3,2.3-1,3.5L23.2,52.2z"/>
					
						<linearGradient id="SVGID_1_" gradientUnits="userSpaceOnUse" x1="13.1651" y1="13.08" x2="31.6467" y2="13.08" gradientTransform="matrix(1 0 0 -1 0 80)">
						<stop  offset="0" style="stop-color:#1F1D59"/>
						<stop  offset="1" style="stop-color:#0E0F20"/>
					</linearGradient>
					<path class="st2" d="M31.2,62.4c-1,0-2.1-0.1-3.1-0.2c-5.3,4.5-9.5,8-10.4,8.8c-0.6,0.5-1.3,1-2,1.3c0.2-0.6,0.4-1.2,0.7-1.8
						l5.4-10.2c-0.7-0.4-1.5-0.8-2.2-1.2l-5.4,10.3c-0.8,1.4-1.8,3.9-0.2,5l0.1,0.1c0.4,0.3,0.9,0.5,1.4,0.5c0.9,0,1.9-0.5,3.7-2
						c1-0.8,6.3-5.2,12.5-10.5L31.2,62.4z"/>
				</g>
				<g>
					
						<linearGradient id="SVGID_2_" gradientUnits="userSpaceOnUse" x1="16.6367" y1="34.86" x2="23.8267" y2="34.86" gradientTransform="matrix(1 0 0 -1 0 80)">
						<stop  offset="0" style="stop-color:#0E0F20"/>
						<stop  offset="1" style="stop-color:#1F1D59"/>
					</linearGradient>
					<path class="st3" d="M17.8,45.3c0.1,0.3,0.3,0.7,0.4,1l4.3,0.4h0.1c0.7,0,1.2-0.6,1.2-1.3c0-0.6-0.5-1.1-1.1-1.2l-6-0.5
						C17.2,44.1,17.6,44.6,17.8,45.3z"/>
					
						<linearGradient id="SVGID_3_" gradientUnits="userSpaceOnUse" x1="5.6767" y1="35.8" x2="12.2567" y2="35.8" gradientTransform="matrix(1 0 0 -1 0 80)">
						<stop  offset="0" style="stop-color:#1F1D59"/>
						<stop  offset="0.48" style="stop-color:#0E0F20"/>
						<stop  offset="1" style="stop-color:#1F1D59"/>
					</linearGradient>
					<path class="st4" d="M12.3,43.3L7,42.8c-0.7,0-1.2,0.6-1.2,1.2c0,0.6,0.4,1.1,1,1.2l3.6,0.3C10.7,44.6,11.4,43.8,12.3,43.3z"/>
				</g>
				
					<linearGradient id="SVGID_4_" gradientUnits="userSpaceOnUse" x1="28.5963" y1="39.64" x2="52.0216" y2="39.64" gradientTransform="matrix(1 0 0 -1 0 80)">
					<stop  offset="0" style="stop-color:#40C7F3"/>
					<stop  offset="1" style="stop-color:#1F1D59"/>
				</linearGradient>
				<path class="st5" d="M40.6,28.8c1.1,1,1.8,2.4,1.8,3.8c-0.1,2.6-2.2,4.6-4.8,4.6h-5.8c-1.8,0-3.2,1.4-3.2,3.2
					c0,1.8,1.4,3.2,3.2,3.2c0,0,0,0,0,0h5.8c2.6,0,4.7,2,4.8,4.6c0,1.5-0.7,2.9-1.8,3.8l-0.1,0.1h8.1c4.7-7.1,4.7-16.3,0-23.4h-8.1
					L40.6,28.8z"/>
				
					<linearGradient id="SVGID_5_" gradientUnits="userSpaceOnUse" x1="31.3885" y1="18.33" x2="31.3885" y2="52.39" gradientTransform="matrix(1 0 0 -1 0 80)">
					<stop  offset="0" style="stop-color:#40C7F3"/>
					<stop  offset="1" style="stop-color:#1F1D59"/>
				</linearGradient>
				<path class="st6" d="M51.7,40.4c0.1-4.6-1.5-9.2-4.4-12.8c0.5,1.4,0.7,2.8,0.7,4.3c-0.3,5.8-1.7,15.5-7.5,20.2
					c-0.6,0.5-1.3,0.9-2,1.3l-0.3,0.1c-2.2,1.2-4.6,1.8-7,1.8c-6.2,0-11.8-3.9-14-9.7c-0.7-1.6-2.6-2.4-4.2-1.7
					c-1.5,0.6-2.3,2.3-1.8,3.9c3.1,8.3,11.1,13.8,19.9,13.8c5.6,0,11-2.2,14.9-6.2h0.1C50.1,51.6,51.7,46.3,51.7,40.4z"/>
				
					<linearGradient id="SVGID_6_" gradientUnits="userSpaceOnUse" x1="11.3858" y1="43.6687" x2="52.4667" y2="43.6687" gradientTransform="matrix(1 0 0 -1 0 80)">
					<stop  offset="0" style="stop-color:#1F1D59"/>
					<stop  offset="1" style="stop-color:#40C7F3"/>
				</linearGradient>
				<path class="st7" d="M52.5,40.4c0-3.7-1-7.3-2.8-10.5l0,0l-0.2-0.3c-0.3-0.6-0.7-1.2-1.1-1.7L48,27.4c-0.2-0.3-0.4-0.5-0.6-0.8
					s-0.5-0.6-0.8-0.9c-0.1-0.1-0.2-0.2-0.3-0.4l0,0c-8.3-8.3-21.7-8.2-30,0.1c-1.9,1.9-3.5,4.2-4.5,6.7c-0.7,1.6,0.1,3.5,1.7,4.2
					s3.5-0.1,4.2-1.7l0,0C20.7,27,29.4,23.5,37,26.7c1.3,0.5,2.5,1.3,3.6,2.1c0.4,0.3,0.7,0.7,0.9,1.1h0.2c7,7.5,6.2,23.1,6.2,23.6
					C50.9,49.8,52.5,45.2,52.5,40.4z"/>
				<path class="st0" d="M15.3,71.1c-0.7,0-1.2-0.6-1.2-1.2c0-0.2,0-0.4,0.1-0.6l9.5-18.2c0.3-0.6,1-0.9,1.6-0.6s0.9,1,0.6,1.6
					c0,0.1-0.1,0.1-0.1,0.2l-9.5,18.2C16.2,70.9,15.8,71.1,15.3,71.1z"/>
				<g>
					
						<linearGradient id="SVGID_7_" gradientUnits="userSpaceOnUse" x1="34.5305" y1="49.4249" x2="41.0367" y2="49.4249" gradientTransform="matrix(1 0 0 -1 0 80)">
						<stop  offset="0.11" style="stop-color:#1F1D59"/>
						<stop  offset="0.21" style="stop-color:#17163E"/>
						<stop  offset="0.32" style="stop-color:#101128"/>
						<stop  offset="0.4" style="stop-color:#0E0F20"/>
						<stop  offset="0.7" style="stop-color:#0F0F22"/>
						<stop  offset="0.81" style="stop-color:#111129"/>
						<stop  offset="0.89" style="stop-color:#141434"/>
						<stop  offset="0.95" style="stop-color:#191845"/>
						<stop  offset="1" style="stop-color:#1F1D59"/>
					</linearGradient>
					<path class="st8" d="M37,36.5h0.5c1.4,0,2.7-0.7,3.5-1.8l-1.8-0.1c-0.5,0-1.9-0.4-2.1-1.1c-0.3-1,0.4-2.7,1.7-5.2l-0.3-0.2h0.4
						l0.9-1.7c0.3-0.6,0-1.4-0.6-1.6c-0.6-0.3-1.2-0.1-1.6,0.5c-2.3,4.3-3.5,6.7-2.9,8.9C35,35.2,35.9,36.1,37,36.5z"/>
					
						<linearGradient id="SVGID_8_" gradientUnits="userSpaceOnUse" x1="52.5767" y1="43.355" x2="55.7567" y2="43.355" gradientTransform="matrix(1 0 0 -1 0 80)">
						<stop  offset="0.11" style="stop-color:#1F1D59"/>
						<stop  offset="0.21" style="stop-color:#17163E"/>
						<stop  offset="0.32" style="stop-color:#101128"/>
						<stop  offset="0.4" style="stop-color:#0E0F20"/>
						<stop  offset="0.7" style="stop-color:#0F0F22"/>
						<stop  offset="0.81" style="stop-color:#111129"/>
						<stop  offset="0.89" style="stop-color:#141434"/>
						<stop  offset="0.95" style="stop-color:#191845"/>
						<stop  offset="1" style="stop-color:#1F1D59"/>
					</linearGradient>
					<path class="st9" d="M54.6,35.5l-2-0.1c0.2,0.8,0.3,1.7,0.4,2.5l1.4,0.1h0.1c0.7,0,1.2-0.6,1.2-1.3
						C55.7,36,55.2,35.5,54.6,35.5L54.6,35.5z"/>
				</g>
				
					<linearGradient id="SVGID_9_" gradientUnits="userSpaceOnUse" x1="30.5367" y1="68.5999" x2="48.9967" y2="68.5999" gradientTransform="matrix(1 0 0 -1 0 80)">
					<stop  offset="0" style="stop-color:#1F1D59"/>
					<stop  offset="0.48" style="stop-color:#0E0F20"/>
					<stop  offset="1" style="stop-color:#1F1D59"/>
				</linearGradient>
				<path class="st10" d="M31.2,18.4c1,0,2,0.1,2.9,0.2L48.6,6.3c0.5-0.5,0.5-1.3,0-1.8C48.2,4.1,47.5,4,47,4.4l-16.4,14L31.2,18.4z
					"/>
				
					<linearGradient id="SVGID_10_" gradientUnits="userSpaceOnUse" x1="4.4567" y1="41.11" x2="12.8567" y2="41.11" gradientTransform="matrix(1 0 0 -1 0 80)">
					<stop  offset="0" style="stop-color:#1F1D59"/>
					<stop  offset="0.48" style="stop-color:#0E0F20"/>
					<stop  offset="1" style="stop-color:#1F1D59"/>
				</linearGradient>
				<path class="st11" d="M11.7,35.9L11.7,35.9l-0.2-0.2l-0.1-0.1l-0.1-0.2l-0.1-0.1l-0.1-0.2l0,0c-3.5,3-5.9,5.1-6.2,5.4
					c-0.5,0.5-0.5,1.3,0,1.8c0.2,0.2,0.5,0.3,0.8,0.4c0.3,0,0.6-0.1,0.9-0.3c0.3-0.3,2.7-2.3,6.3-5.5l0,0
					C12.4,36.6,12,36.3,11.7,35.9z"/>
				<g>
					<path class="st0" d="M31.2,18.4c1,0,2,0.1,2.9,0.2L47.7,7c-1,1.7-4.7,8.4-7.5,13.4c0.8,0.3,1.5,0.7,2.2,1.2
						C45.6,15.8,50,7.9,50,7.9c0.8-1.1,1.2-2.8,0.1-3.8c-0.4-0.3-0.8-0.5-1.3-0.5c-0.7,0-1.4,0.3-1.9,0.9l-16.4,14L31.2,18.4z"/>
					
						<linearGradient id="SVGID_11_" gradientUnits="userSpaceOnUse" x1="37.7794" y1="43.4799" x2="37.7794" y2="52.7799" gradientTransform="matrix(1 0 0 -1 0 80)">
						<stop  offset="0" style="stop-color:#0E0F20"/>
						<stop  offset="0.68" style="stop-color:#1F1D59"/>
					</linearGradient>
					<path class="st12" d="M37.1,33.4c-0.3-1,0.4-2.7,1.7-5.1c-0.7-0.4-1.4-0.8-2.2-1.1c-1.6,3.1-2.3,5-1.8,6.8
						c0.4,1.1,1.2,2.1,2.4,2.5h0.5c1.4,0,2.7-0.7,3.5-1.9l-1.8-0.1C38.6,34.5,37.3,34.1,37.1,33.4z"/>
					
						<linearGradient id="SVGID_12_" gradientUnits="userSpaceOnUse" x1="3.9135" y1="39.64" x2="12.8567" y2="39.64" gradientTransform="matrix(1 0 0 -1 0 80)">
						<stop  offset="0" style="stop-color:#1F1D59"/>
						<stop  offset="1" style="stop-color:#0E0F20"/>
					</linearGradient>
					<path class="st13" d="M6.4,42.6c0-0.1,0-0.2,0.1-0.3s2.7-2.3,6.3-5.5c-0.8-0.4-1.4-1-1.8-1.7c-3.5,3-5.9,5.1-6.2,5.4
						c-0.8,0.7-1.1,1.9-0.8,2.9c0.5,1.1,1.5,1.8,2.7,1.8l3.7,0.3c0.3-1,1-1.8,2-2.3L7,42.8C6.8,42.8,6.6,42.7,6.4,42.6z"/>
				</g>
				<g>
					
						<linearGradient id="SVGID_13_" gradientUnits="userSpaceOnUse" x1="30.4767" y1="67.48" x2="50.7552" y2="67.48" gradientTransform="matrix(1 0 0 -1 0 80)">
						<stop  offset="0" style="stop-color:#0E0F20"/>
						<stop  offset="1" style="stop-color:#1F1D59"/>
					</linearGradient>
					<path class="st14" d="M31.2,18.4c1,0,1.9,0.1,2.9,0.2L47.7,7c-1,1.7-4.7,8.4-7.5,13.3c0.8,0.3,1.5,0.7,2.2,1.2
						C45.6,15.8,50,7.9,50,7.9c0.8-1.1,1.2-2.8,0.1-3.8c-0.4-0.3-0.8-0.5-1.3-0.5c-0.7,0-1.4,0.3-1.9,0.9l-16.4,14L31.2,18.4z"/>
					
						<linearGradient id="SVGID_14_" gradientUnits="userSpaceOnUse" x1="52.5567" y1="40.13" x2="58.0067" y2="40.13" gradientTransform="matrix(1 0 0 -1 0 80)">
						<stop  offset="0" style="stop-color:#0E0F20"/>
						<stop  offset="1" style="stop-color:#1F1D59"/>
					</linearGradient>
					<path class="st15" d="M57.7,37.1c-1-1.6-3.7-1.7-4.5-1.7h-0.6c0.2,0.8,0.3,1.7,0.4,2.5h0.1c0.8,0,1.7,0.2,2.4,0.5
						c-0.1,0.4-0.4,0.8-0.8,1.1l-1.6,1.4c0,1.2-0.1,2.4-0.4,3.5l3.6-3C57.6,40.3,58.6,38.5,57.7,37.1z"/>
				</g>
				<path class="st0" d="M37.5,29.2c-0.2,0-0.4,0-0.6-0.1c-0.6-0.3-0.9-1.1-0.5-1.7c0,0,0,0,0,0c0.3-0.7,0.8-1.4,1.2-2.3
					c2.1-4,10.3-18.4,10.3-18.6c0.4-0.6,1.1-0.7,1.7-0.4c0.5,0.3,0.7,1,0.4,1.6C50,8,41.9,22.4,39.8,26.4c-0.4,0.8-0.8,1.5-1.2,2.2
					C38.4,29,38,29.2,37.5,29.2z"/>
			</g>
		</g>
	</g>
</g>
</svg>
