<svg xmlns="http://www.w3.org/2000/svg" viewBox="0 0 6.29 6.3">
  <defs>
    <style>
      .cls-1 {
        fill: #1f1d59;
      }
    </style>
  </defs>
  <path class="cls-1" d="M5.95,4.37a4,4,0,0,1-1.26-.21.43.43,0,0,0-.35.07L3.57,5A5.45,5.45,0,0,1,1.26,2.69L2,1.92a.28.28,0,0,0,.07-.35A4.69,4.69,0,0,1,1.92.35.33.33,0,0,0,1.57,0H.35A.33.33,0,0,0,0,.35,5.94,5.94,0,0,0,5.95,6.3a.33.33,0,0,0,.35-.35V4.72a.33.33,0,0,0-.35-.35M5.6,3.15h.7A3.13,3.13,0,0,0,3.15,0V.7A2.43,2.43,0,0,1,5.6,3.15m-1.4,0h.7A1.73,1.73,0,0,0,3.15,1.4v.7a1,1,0,0,1,1.05,1"/>
</svg>
